<svg xmlns="http://www.w3.org/2000/svg" width="23.043" height="22.083" viewBox="0 0 23.043 22.083">
  <g id="Group_32" data-name="Group 32" transform="translate(0 -10.666)">
    <g id="Group_29" data-name="Group 29" transform="translate(0 20.268)">
      <g id="Group_28" data-name="Group 28">
        <path id="Path_71" data-name="Path 71" d="M2.4,224A2.4,2.4,0,0,0,0,226.4v7.681a2.4,2.4,0,0,0,2.4,2.4H5.28A2.383,2.383,0,0,0,6.721,236V224Z" transform="translate(0 -224)" fill="#42495b"/>
      </g>
    </g>
    <g id="Group_31" data-name="Group 31" transform="translate(7.681 10.667)">
      <g id="Group_30" data-name="Group 30">
        <path id="Path_72" data-name="Path 72" d="M186.029,23.869a2.129,2.129,0,0,0-.625-1.511,2.384,2.384,0,0,0,.614-1.833,2.482,2.482,0,0,0-2.5-2.177h-5.931a13.806,13.806,0,0,0,.764-3.841c0-2.083-1.77-3.841-2.88-3.841a3.02,3.02,0,0,0-1.741.585.482.482,0,0,0-.18.375v3.256l-2.765,5.99-.115.059V31.223a6.291,6.291,0,0,0,2.4.567h8.813a2.208,2.208,0,0,0,2.176-1.677,2.16,2.16,0,0,0-.174-1.442,2.151,2.151,0,0,0,.961-2.881,2.149,2.149,0,0,0,1.183-1.921Z" transform="translate(-170.667 -10.667)" fill="#42495b"/>
      </g>
    </g>
  </g>
</svg>
