<svg xmlns="http://www.w3.org/2000/svg" width="27.732" height="22.838" viewBox="0 0 27.732 22.838">
  <path id="Path_73" data-name="Path 73" d="M22.045,46H5.687A5.694,5.694,0,0,0,0,51.687v8.784A5.6,5.6,0,0,0,4.024,65.85L6.77,68.6a.812.812,0,0,0,1.149,0l2.52-2.52H22.045a5.694,5.694,0,0,0,5.687-5.687v-8.7A5.694,5.694,0,0,0,22.046,46ZM7.895,57.475a.812.812,0,0,1,.812-.812H19.025a.812.812,0,1,1,0,1.625H8.707a.812.812,0,0,1-.812-.813Zm11.13-2.06H8.707a.812.812,0,1,1,0-1.625H19.025a.813.813,0,0,1,0,1.625Z" transform="translate(0 -46)" fill="#42495b"/>
</svg>
