<svg xmlns="http://www.w3.org/2000/svg" width="817.143" height="405.284" viewBox="0 0 817.143 405.284">
  <g id="Сгруппировать_22" data-name="Сгруппировать 22" transform="translate(-633 -1651)">
    <g id="Group_69" data-name="Group 69" transform="translate(501.213 1610.272)">
      <text id="Facebook" transform="translate(882.93 231.807)" font-size="15" font-family="Helvetica"><tspan x="0" y="0">Facebook</tspan></text>
      <text id="Újságcikk" transform="translate(882.929 258.199)" font-size="15" font-family="Helvetica"><tspan x="0" y="0">Újságcikk</tspan></text>
      <text id="Komment" transform="translate(882.93 283.48)" font-size="15" font-family="Helvetica"><tspan x="0" y="0">Komment</tspan></text>
      <text id="Fórum" transform="translate(882.93 309.317)" font-size="15" font-family="Helvetica"><tspan x="0" y="0">Fórum</tspan></text>
      <text id="Videó" transform="translate(882.93 335.153)" font-size="15" font-family="Helvetica"><tspan x="0" y="0">Videó</tspan></text>
      <text id="instagram" transform="translate(882.929 360.989)" font-size="15" font-family="Helvetica"><tspan x="0" y="0">instagram</tspan></text>
      <text id="twitter" transform="translate(882.93 386.826)" font-size="15" font-family="Helvetica"><tspan x="0" y="0">twitter</tspan></text>
      <text id="Címlap" transform="translate(882.93 412.663)" font-size="15" font-family="Helvetica"><tspan x="0" y="0">Címlap</tspan></text>
      <rect id="Rectangle_145" data-name="Rectangle 145" width="23.488" height="23.488" transform="translate(850.047 215.669)" fill="#e8c1a0"/>
      <rect id="Rectangle_146" data-name="Rectangle 146" width="23.488" height="23.488" transform="translate(850.047 241.505)" fill="#f47560"/>
      <rect id="Rectangle_147" data-name="Rectangle 147" width="23.488" height="23.488" transform="translate(850.047 267.342)" fill="#f1e15b"/>
      <rect id="Rectangle_148" data-name="Rectangle 148" width="23.488" height="23.488" transform="translate(850.047 293.178)" fill="#e8a838"/>
      <rect id="Rectangle_149" data-name="Rectangle 149" width="23.488" height="23.488" transform="translate(850.047 319.015)" fill="#61cdbb"/>
      <rect id="Rectangle_150" data-name="Rectangle 150" width="23.488" height="23.488" transform="translate(850.047 344.851)" fill="#97e3d5"/>
      <rect id="Rectangle_151" data-name="Rectangle 151" width="23.488" height="23.488" transform="translate(850.047 370.688)" fill="#e8c1a0"/>
      <rect id="Rectangle_152" data-name="Rectangle 152" width="23.488" height="23.488" transform="translate(850.047 396.524)" fill="#f47560"/>
    </g>
    <g id="Group_71" data-name="Group 71">
      <path id="Path_87" data-name="Path 87" d="M466.327,40.089c104.885,3.2,187.314,90.826,184.111,195.711A190,190,0,0,1,488.869,417.874l-9.045-75.519a114,114,0,0,0-13.5-226.207Z" transform="translate(495.855 1636.272)" fill="#e8c1a0"/>
      <path id="Path_88" data-name="Path 88" d="M477.351,419.254C373.092,428.522,280.974,351.723,271.334,247.5l75.915-4.689A114,114,0,0,0,468.306,343.734Z" transform="translate(495.855 1636.272)" fill="#f47560"/>
      <path id="Path_89" data-name="Path 89" d="M270.619,235.92a190,190,0,0,1,38.606-120.846l59.135,47.834a114.007,114.007,0,0,0-21.827,68.323Z" transform="translate(495.855 1636.272)" fill="#f1e15b"/>
      <path id="Path_90" data-name="Path 90" d="M316.521,106.055A190,190,0,0,1,369.84,63.039l34.246,67.913a114,114,0,0,0-28.43,22.937Z" transform="translate(495.855 1636.272)" fill="#e8a838"/>
      <path id="Path_91" data-name="Path 91" d="M442.141,40.892q.611-.06,1.22-.115l6.5,75.723Z" transform="translate(495.855 1636.272)" fill="#61cdbb" stroke="#61cdbb" stroke-width="1"/>
      <path id="Path_92" data-name="Path 92" d="M454.834,40.085l2.277,75.966Z" transform="translate(495.855 1636.272)" fill="#97e3d5" stroke="#97e3d5" stroke-width="0.5"/>
      <path id="Path_93" data-name="Path 93" d="M428.006,42.8q1.313-.228,2.629-.438L441.8,117.548Z" transform="translate(495.855 1636.272)" fill="#e8c1a0" stroke="#e8c1a0" stroke-width="1"/>
      <path id="Path_94" data-name="Path 94" d="M380.2,57.816a190.054,190.054,0,0,1,36.445-12.679l15.3,74.5a114.036,114.036,0,0,0-17.5,6.087Z" transform="translate(495.855 1636.272)" fill="#f47560"/>
      <path id="Path_95" data-name="Path 95" d="M650.189,218.683l29.947-1.787h30" transform="translate(495.855 1636.272)" fill="none" stroke="#e8c1a0" stroke-width="1"/>
      <text id="Facebook-2" data-name="Facebook" transform="translate(1219.491 1857.583)" font-size="15" font-family="Helvetica"><tspan x="0" y="0">Facebook</tspan></text>
      <path id="Path_96" data-name="Path 96" d="M338.86,375.936l-19.21,23.043h-30" transform="translate(495.855 1636.272)" fill="none" stroke="#f47560" stroke-width="1"/>
      <text id="Újságcikk-2" data-name="Újságcikk" transform="translate(705.698 2040.222)" font-size="15" font-family="Helvetica"><tspan x="0" y="0">Újságcikk</tspan></text>
      <path id="Path_97" data-name="Path 97" d="M279.538,172.18l-28.577-9.13h-30" transform="translate(495.855 1636.272)" fill="none" stroke="#f1e15b" stroke-width="1"/>
      <text id="Komment-2" data-name="Komment" transform="translate(633 1803.666)" font-size="15" font-family="Helvetica"><tspan x="0" y="0">Komment</tspan></text>
      <path id="Path_98" data-name="Path 98" d="M341.226,82.124,322.389,58.775h-30" transform="translate(495.855 1636.272)" fill="none" stroke="#e8a838" stroke-width="1"/>
      <text id="Fórum-2" data-name="Fórum" transform="translate(728.339 1699.666)" font-size="15" font-family="Helvetica"><tspan x="0" y="0">Fórum</tspan></text>
      <path id="Path_99" data-name="Path 99" d="M398.1,50.549l-9.857-28.334h-30" transform="translate(495.855 1636.272)" fill="none" stroke="#f47560" stroke-width="1"/>
      <text id="Címlap-2" data-name="Címlap" transform="translate(791.384 1663)" font-size="15" font-family="Helvetica"><tspan x="0" y="0">Címlap</tspan></text>
      <text id="_392" data-name="392" transform="translate(1098.938 1857.218)" fill="#333" font-size="11" font-family="Helvetica"><tspan x="0" y="0">392</tspan></text>
      <text id="_208" data-name="208" transform="translate(849.875 1983.021)" fill="#333" font-size="11" font-family="Helvetica"><tspan x="0" y="0">208</tspan></text>
      <text id="_91" data-name="91" transform="translate(805.475 1820.016)" fill="#333" font-size="11" font-family="Helvetica"><tspan x="0" y="0">91</tspan></text>
      <text id="_49" data-name="49" transform="translate(854.825 1747.971)" fill="#333" font-size="11" font-family="Helvetica"><tspan x="0" y="0">49</tspan></text>
      <text id="_28" data-name="28" transform="translate(900.323 1722.711)" fill="#333" font-size="11" font-family="Helvetica"><tspan x="0" y="0">28</tspan></text>
    </g>
  </g>
</svg>
