<svg xmlns="http://www.w3.org/2000/svg" width="58.484" height="67.933" viewBox="0 0 58.484 67.933">
  <g id="padlock" transform="translate(-35.61)">
    <g id="Сгруппировать_14" data-name="Сгруппировать 14" transform="translate(35.61)">
      <g id="Сгруппировать_13" data-name="Сгруппировать 13">
        <path id="Контур_1" data-name="Контур 1" d="M90.653,25.79H85.475V20.724a20.637,20.637,0,1,0-41.273,0V25.79H39.05a3.461,3.461,0,0,0-3.44,3.462v35.22a3.461,3.461,0,0,0,3.44,3.462h51.6a3.461,3.461,0,0,0,3.44-3.462V29.251A3.461,3.461,0,0,0,90.653,25.79ZM46.782,20.724a18.169,18.169,0,0,1,5.33-12.818,17.939,17.939,0,0,1,25.479,0,18.143,18.143,0,0,1,5.3,12.818V25.79H46.782ZM90.654,65.337H39.05a.874.874,0,0,1-.86-.865V29.251a.874.874,0,0,1,.86-.865h51.6a.874.874,0,0,1,.86.865v35.22h0A.875.875,0,0,1,90.654,65.337Z" transform="translate(-35.61)" fill="#2d3448"/>
      </g>
    </g>
    <g id="Сгруппировать_16" data-name="Сгруппировать 16" transform="translate(58.831 39.375)">
      <g id="Сгруппировать_15" data-name="Сгруппировать 15">
        <path id="Контур_2" data-name="Контур 2" d="M216.646,296.763a6.06,6.06,0,0,0-1.29,11.972v6.2a1.29,1.29,0,1,0,2.58,0v-6.2a6.06,6.06,0,0,0-1.29-11.972Zm0,9.52a3.462,3.462,0,1,1,3.44-3.462A3.455,3.455,0,0,1,216.646,306.283Z" transform="translate(-210.626 -296.763)" fill="#2d3448"/>
      </g>
    </g>
  </g>
</svg>
