<svg xmlns="http://www.w3.org/2000/svg" width="157.786" height="39.057" viewBox="0 0 157.786 39.057">
  <g id="Сгруппировать_3" data-name="Сгруппировать 3" transform="translate(-471.358 -35)">
    <path id="Path_34" data-name="Path 34" d="M321.475,442.042h.2v.127h-3.81v-.114h.191a.528.528,0,0,0,.368-.178.443.443,0,0,0,.127-.368l-.5-4.61-2.388,4.115a2.946,2.946,0,0,0-.482,1.41h-.127l-3.264-5.486-.5,4.572a.461.461,0,0,0,.127.375.476.476,0,0,0,.368.171h.191v.114h-2.654v-.127h.2a.934.934,0,0,0,.616-.216.887.887,0,0,0,.311-.584L311.5,433.1h.114l3.937,6.477,3.785-6.477h.114l1.079,8.141a.936.936,0,0,0,.324.584.915.915,0,0,0,.6.216" transform="translate(204.068 -391.502)" fill="#85909d"/>
    <path id="Path_35" data-name="Path 35" d="M375.423,438.828h2.54l-1.232-3.124Zm6.718,2.9h.114v.127H378.2v-.127h.114a.491.491,0,0,0,.413-.171.539.539,0,0,0,.133-.324.793.793,0,0,0-.063-.3l-.622-1.562H375.2l-.661,1.562a.87.87,0,0,0-.064.311.521.521,0,0,0,.14.318.51.51,0,0,0,.419.171h.1v.127h-2.718v-.127h.114a1.112,1.112,0,0,0,.584-.178,1.35,1.35,0,0,0,.483-.533l2.933-6.642a6.718,6.718,0,0,0,.635-1.664h.115l3.771,8.28a1.382,1.382,0,0,0,.483.553,1.105,1.105,0,0,0,.6.184" transform="translate(153.168 -391.184)" fill="#85909d"/>
    <path id="Path_36" data-name="Path 36" d="M428.553,442.347a4.846,4.846,0,0,1-3.486-1.251,4.636,4.636,0,0,1,3.562-7.995,9.723,9.723,0,0,1,1.969.2,6.4,6.4,0,0,1,1.536.489l.026,2.185h-.114a3.014,3.014,0,0,0-1.13-1.784,3.271,3.271,0,0,0-1.9-.552,2.778,2.778,0,0,0-2.362,1.1,4.905,4.905,0,0,0-.825,3.01,5.149,5.149,0,0,0,.756,2.991,2.459,2.459,0,0,0,2.14,1.08,2.5,2.5,0,0,0,1.677-.572,1.745,1.745,0,0,0,.482-.686v-1.943a.527.527,0,0,0-.171-.426.731.731,0,0,0-.489-.146h-.2v-.127h3.569v.127H433.4a.686.686,0,0,0-.47.146.538.538,0,0,0-.165.426v2.1a4.043,4.043,0,0,1-1.638,1.143,6.387,6.387,0,0,1-2.565.5" transform="translate(111.76 -391.503)" fill="#85909d"/>
    <path id="Path_37" data-name="Path 37" d="M484.336,434.148h-.178a1.336,1.336,0,0,0-.724.216,1.786,1.786,0,0,0-.546.521l-2.5,3.988v3.111a.759.759,0,0,0,.241.565.789.789,0,0,0,.572.235h.152l.013.127H477.5v-.127h.165a.783.783,0,0,0,.565-.229.8.8,0,0,0,.248-.559V438.86l-2.426-3.988a1.58,1.58,0,0,0-.54-.514,1.378,1.378,0,0,0-.717-.21h-.178v-.127h4.2v.127h-.165a.477.477,0,0,0-.432.254.565.565,0,0,0-.076.273.581.581,0,0,0,.063.26l1.816,3.3,1.892-3.3a.579.579,0,0,0,.063-.26.448.448,0,0,0-.089-.26.475.475,0,0,0-.432-.267H481.3v-.127h3.023Z" transform="translate(70.721 -392.244)" fill="#85909d"/>
    <path id="Path_38" data-name="Path 38" d="M518.629,438.828h2.54l-1.232-3.124Zm6.718,2.9h.114v.127H521.41v-.127h.114a.491.491,0,0,0,.413-.171.54.54,0,0,0,.133-.324.788.788,0,0,0-.064-.3l-.622-1.562h-2.972l-.66,1.562a.862.862,0,0,0-.064.311.518.518,0,0,0,.14.318.508.508,0,0,0,.419.171h.1v.127h-2.718v-.127h.114a1.111,1.111,0,0,0,.584-.178,1.349,1.349,0,0,0,.483-.533l2.934-6.642a6.724,6.724,0,0,0,.635-1.664h.114l3.772,8.28a1.381,1.381,0,0,0,.482.553,1.1,1.1,0,0,0,.6.184" transform="translate(37.635 -391.184)" fill="#85909d"/>
    <path id="Path_39" data-name="Path 39" d="M572.529,434.581h-.584v7.4a.815.815,0,0,0,.247.565.771.771,0,0,0,.565.235h.165v.127h-3.861v-.127h.165a.773.773,0,0,0,.7-.394.888.888,0,0,0,.114-.394V434.95a.819.819,0,0,0-.248-.565.771.771,0,0,0-.565-.235h-.165v-.127h4.356a3.845,3.845,0,0,1,2.083.533,1.9,1.9,0,0,1,.686.743,2.642,2.642,0,0,1,.254,1.245,2.434,2.434,0,0,1-.534,1.48,2.1,2.1,0,0,1-1.549.813,2.511,2.511,0,0,1,1.3,1.117,9.646,9.646,0,0,0,2.032,2.616,1.629,1.629,0,0,0,.826.216v.127h-1.245a4.979,4.979,0,0,1-1.835-.292,2.274,2.274,0,0,1-1.149-1.029q-.241-.419-1.054-2.172-.356-.775-.863-.851v-.127h.394a1.593,1.593,0,0,0,1.01-.343,1.8,1.8,0,0,0,.59-1.117,2.384,2.384,0,0,0,.051-.419,2.211,2.211,0,0,0-.419-1.5,1.429,1.429,0,0,0-1.079-.477Z" transform="translate(-5.471 -392.246)" fill="#85909d"/>
    <path id="Path_40" data-name="Path 40" d="M620.952,440.716a2.615,2.615,0,0,0,4.261,0,6.075,6.075,0,0,0,0-5.982,2.615,2.615,0,0,0-4.261,0,6.118,6.118,0,0,0,0,5.982m-1.511-6.369a5.959,5.959,0,0,1,7.289,0,4.895,4.895,0,0,1,0,6.756,5.959,5.959,0,0,1-7.289,0,4.894,4.894,0,0,1,0-6.756" transform="translate(-45.023 -391.503)" fill="#85909d"/>
    <path id="Path_41" data-name="Path 41" d="M679.325,434.581h-.584v7.4a.816.816,0,0,0,.248.565.77.77,0,0,0,.565.235h.165v.127h-3.861v-.127h.165a.774.774,0,0,0,.7-.394.891.891,0,0,0,.114-.394V434.95a.82.82,0,0,0-.248-.565.772.772,0,0,0-.565-.235h-.165v-.127h4.356a3.846,3.846,0,0,1,2.083.533,1.9,1.9,0,0,1,.686.743,2.641,2.641,0,0,1,.254,1.245,2.435,2.435,0,0,1-.534,1.48,2.1,2.1,0,0,1-1.549.813,2.511,2.511,0,0,1,1.3,1.117,9.647,9.647,0,0,0,2.032,2.616,1.629,1.629,0,0,0,.825.216v.127h-1.245a4.979,4.979,0,0,1-1.835-.292,2.275,2.275,0,0,1-1.149-1.029q-.242-.419-1.054-2.172-.356-.775-.864-.851v-.127h.394a1.592,1.592,0,0,0,1.01-.343,1.8,1.8,0,0,0,.591-1.117,2.425,2.425,0,0,0,.05-.419,2.214,2.214,0,0,0-.419-1.5,1.431,1.431,0,0,0-1.08-.477Z" transform="translate(-91.63 -392.246)" fill="#85909d"/>
    <path id="Path_42" data-name="Path 42" d="M726.4,440.988a2.954,2.954,0,0,1,.393-1.562h.115a1.6,1.6,0,0,0-.013.2,2.137,2.137,0,0,0,.629,1.53,2.274,2.274,0,0,0,1.721.654,1.983,1.983,0,0,0,1.327-.406,1.293,1.293,0,0,0,.477-1.029,1.025,1.025,0,0,0-.235-.66,3.4,3.4,0,0,0-.781-.648l-2.21-1.46a2.4,2.4,0,0,1-1.232-2.032,1.291,1.291,0,0,1,.025-.254,2.268,2.268,0,0,1,.781-1.613,2.783,2.783,0,0,1,1.886-.61,14.558,14.558,0,0,1,1.727.127h.8l-.165,1.867h-.127a1.3,1.3,0,0,0-.489-1.06,1.994,1.994,0,0,0-1.3-.4,1.656,1.656,0,0,0-1.435.609.947.947,0,0,0-.229.584.992.992,0,0,0,.115.5,2.215,2.215,0,0,0,.775.711l2.426,1.575a2.258,2.258,0,0,1,1.143,1.956,2.461,2.461,0,0,1-.921,2.064,3.868,3.868,0,0,1-2.445.717,5.761,5.761,0,0,1-1.594-.21,2.382,2.382,0,0,1-1.073-.565,1.7,1.7,0,0,1-.089-.584" transform="translate(-132.403 -391.502)" fill="#85909d"/>
    <path id="Path_43" data-name="Path 43" d="M765.874,432.773a3.542,3.542,0,0,0,.667.152,5.524,5.524,0,0,0,.87.076h4.051a5.4,5.4,0,0,0,.9-.064,1.96,1.96,0,0,0,.432-.1v.114l-4.7,8.42h2.667a2.044,2.044,0,0,0,1.416-.546,3,3,0,0,0,.857-1.473h.127L772.7,441.9h-7v-.114l4.661-8.255h-3.073a1.2,1.2,0,0,0-1.13.622,1.432,1.432,0,0,0-.152.673v.152h-.127Z" transform="translate(-164.108 -391.237)" fill="#85909d"/>
    <path id="Path_44" data-name="Path 44" d="M810.749,420.881l-.089-.089a9.2,9.2,0,0,1,1.816-2.083,1.725,1.725,0,0,1,.864,1.029,8.868,8.868,0,0,1-2.591,1.143m-1.7,6.655h2.54l-1.232-3.124Zm6.718,2.9h.115v.127h-4.051v-.127h.114a.49.49,0,0,0,.413-.171.539.539,0,0,0,.134-.324.792.792,0,0,0-.064-.3l-.622-1.562h-2.972l-.661,1.562a.865.865,0,0,0-.064.311.518.518,0,0,0,.14.318.509.509,0,0,0,.419.171h.1v.127H806.05v-.127h.114a1.112,1.112,0,0,0,.584-.178,1.348,1.348,0,0,0,.483-.533l2.934-6.642a6.71,6.71,0,0,0,.635-1.664h.115l3.772,8.28a1.381,1.381,0,0,0,.482.553,1.106,1.106,0,0,0,.6.184" transform="translate(-196.664 -379.891)" fill="#85909d"/>
    <path id="Path_45" data-name="Path 45" d="M862.178,442.347a4.847,4.847,0,0,1-3.486-1.251,4.636,4.636,0,0,1,3.562-8,9.721,9.721,0,0,1,1.969.2,6.413,6.413,0,0,1,1.537.489l.025,2.185h-.114a3.014,3.014,0,0,0-1.13-1.784,3.271,3.271,0,0,0-1.9-.552,2.778,2.778,0,0,0-2.362,1.1,4.9,4.9,0,0,0-.825,3.01,5.148,5.148,0,0,0,.755,2.991,2.459,2.459,0,0,0,2.14,1.08,2.5,2.5,0,0,0,1.676-.572,1.747,1.747,0,0,0,.482-.686v-1.943a.528.528,0,0,0-.171-.426.732.732,0,0,0-.489-.146h-.2v-.127h3.569v.127h-.191a.685.685,0,0,0-.47.146.538.538,0,0,0-.165.426v2.1a4.043,4.043,0,0,1-1.638,1.143,6.387,6.387,0,0,1-2.565.5" transform="translate(-238.072 -391.503)" fill="#85909d"/>
    <path id="Path_46" data-name="Path 46" d="M319.662,502.424a.747.747,0,0,1-.54.222.726.726,0,0,1-.533-.222.762.762,0,0,1,.533-1.3.759.759,0,0,1,.54,1.3m-2.965,0a.766.766,0,1,1,.222-.54.735.735,0,0,1-.222.54m5.277,1.1h-.216a.611.611,0,0,0-.635.432.506.506,0,0,0-.026.165v4.953a3.227,3.227,0,0,1-.978,2.476,3.768,3.768,0,0,1-2.68.915,4.662,4.662,0,0,1-3.073-.9,3.066,3.066,0,0,1-1.067-2.483v-4.927a.618.618,0,0,0-.343-.559.724.724,0,0,0-.33-.076h-.2V503.4h3.657v.127h-.2a.678.678,0,0,0-.47.171.6.6,0,0,0-.2.438v4.851a3.213,3.213,0,0,0,.66,2.133,2.241,2.241,0,0,0,1.816.787,2.346,2.346,0,0,0,1.829-.743,2.934,2.934,0,0,0,.686-2.013v-5.016a.61.61,0,0,0-.343-.533.725.725,0,0,0-.33-.076h-.2V503.4h2.654Z" transform="translate(201.576 -446.379)" fill="#85909d"/>
    <path id="Path_47" data-name="Path 47" d="M372.889,521.213a4.846,4.846,0,0,1-3.486-1.251,4.636,4.636,0,0,1,3.562-7.995,9.717,9.717,0,0,1,1.969.2,6.4,6.4,0,0,1,1.536.489l.025,2.185h-.114a3.014,3.014,0,0,0-1.13-1.784,3.269,3.269,0,0,0-1.9-.552,2.778,2.778,0,0,0-2.362,1.1,4.907,4.907,0,0,0-.825,3.01,5.15,5.15,0,0,0,.756,2.991,2.458,2.458,0,0,0,2.14,1.08,2.5,2.5,0,0,0,1.677-.572,1.743,1.743,0,0,0,.482-.686v-1.943a.528.528,0,0,0-.171-.426.735.735,0,0,0-.489-.146h-.2v-.127h3.569v.127h-.191a.688.688,0,0,0-.47.146.538.538,0,0,0-.165.426v2.1a4.039,4.039,0,0,1-1.638,1.143,6.386,6.386,0,0,1-2.565.5" transform="translate(156.667 -455.128)" fill="#85909d"/>
    <path id="Path_48" data-name="Path 48" d="M428.673,513.014H428.5a1.335,1.335,0,0,0-.724.216,1.791,1.791,0,0,0-.546.521l-2.5,3.988v3.112a.758.758,0,0,0,.241.565.791.791,0,0,0,.571.235h.153l.013.126h-3.861v-.126h.165a.784.784,0,0,0,.565-.229.8.8,0,0,0,.248-.559v-3.137l-2.426-3.987a1.582,1.582,0,0,0-.54-.514,1.378,1.378,0,0,0-.718-.209h-.178v-.127h4.2v.127H423a.478.478,0,0,0-.432.254.548.548,0,0,0-.013.534l1.816,3.3,1.892-3.3a.578.578,0,0,0,.064-.26.447.447,0,0,0-.089-.26.474.474,0,0,0-.432-.267h-.152v-.127h3.023Z" transform="translate(115.628 -455.87)" fill="#85909d"/>
    <path id="Path_49" data-name="Path 49" d="M474.91,499.747l-.089-.089a9.085,9.085,0,0,1,1.829-2.083,1.733,1.733,0,0,1,.851,1.028,8.667,8.667,0,0,1-2.591,1.143m-3.277,9.55a.772.772,0,0,0,.565-.235.82.82,0,0,0,.248-.565v-7.074a.706.706,0,0,0-.191-.483.922.922,0,0,0-.622-.279h-.165v-.127h4.864a5.462,5.462,0,0,0,.864-.076,3.514,3.514,0,0,0,.66-.153v2.222l-.127-.013v-.14a1.178,1.178,0,0,0-.584-1.117,1.372,1.372,0,0,0-.66-.178h-2.134v3.7h1.677a1.081,1.081,0,0,0,.775-.324,1.055,1.055,0,0,0,.3-.768v-.114h.127V506.5H477.1v-.1a1.052,1.052,0,0,0-1.054-1.092h-1.7v3.568h1.664a2.323,2.323,0,0,0,1.556-.533,3.154,3.154,0,0,0,.934-1.511h.127l-.584,2.591h-6.579V509.3Z" transform="translate(73.264 -443.517)" fill="#85909d"/>
    <path id="Path_50" data-name="Path 50" d="M515.107,519.854a2.953,2.953,0,0,1,.393-1.562h.115a1.577,1.577,0,0,0-.013.2,2.136,2.136,0,0,0,.629,1.53,2.273,2.273,0,0,0,1.721.654,1.983,1.983,0,0,0,1.327-.406,1.293,1.293,0,0,0,.477-1.029,1.026,1.026,0,0,0-.235-.66,3.4,3.4,0,0,0-.781-.648l-2.21-1.46a2.4,2.4,0,0,1-1.232-2.032,1.256,1.256,0,0,1,.026-.254,2.268,2.268,0,0,1,.781-1.613,2.783,2.783,0,0,1,1.886-.609,14.545,14.545,0,0,1,1.727.127h.8l-.165,1.867h-.127a1.3,1.3,0,0,0-.489-1.061,2,2,0,0,0-1.3-.4,1.657,1.657,0,0,0-1.435.609.949.949,0,0,0-.229.584,1,1,0,0,0,.115.5,2.216,2.216,0,0,0,.774.711l2.426,1.575a2.256,2.256,0,0,1,1.143,1.956,2.46,2.46,0,0,1-.921,2.064,3.868,3.868,0,0,1-2.445.717,5.773,5.773,0,0,1-1.594-.209,2.381,2.381,0,0,1-1.073-.565,1.7,1.7,0,0,1-.089-.584" transform="translate(38.058 -455.129)" fill="#85909d"/>
    <path id="Path_51" data-name="Path 51" d="M554.585,511.638a3.532,3.532,0,0,0,.667.152,5.523,5.523,0,0,0,.87.076h4.051a5.389,5.389,0,0,0,.9-.064,1.939,1.939,0,0,0,.432-.1v.114l-4.7,8.42h2.667a2.043,2.043,0,0,0,1.416-.546,3,3,0,0,0,.857-1.473h.127l-.458,2.552H554.4v-.114l4.661-8.255h-3.073a1.2,1.2,0,0,0-1.13.623,1.435,1.435,0,0,0-.152.673v.152h-.127Z" transform="translate(6.352 -454.863)" fill="#85909d"/>
    <path id="Path_52" data-name="Path 52" d="M599.82,519.854a2.95,2.95,0,0,1,.394-1.562h.114a1.6,1.6,0,0,0-.013.2,2.137,2.137,0,0,0,.628,1.53,2.274,2.274,0,0,0,1.721.654,1.983,1.983,0,0,0,1.327-.406,1.3,1.3,0,0,0,.476-1.029,1.026,1.026,0,0,0-.235-.66,3.4,3.4,0,0,0-.781-.648l-2.21-1.46a2.4,2.4,0,0,1-1.232-2.032,1.268,1.268,0,0,1,.025-.254,2.268,2.268,0,0,1,.781-1.613,2.783,2.783,0,0,1,1.886-.609,14.55,14.55,0,0,1,1.727.127h.8l-.165,1.867h-.127a1.3,1.3,0,0,0-.489-1.061,1.993,1.993,0,0,0-1.3-.4,1.657,1.657,0,0,0-1.435.609.948.948,0,0,0-.228.584,1,1,0,0,0,.114.5,2.218,2.218,0,0,0,.775.711l2.426,1.575a2.256,2.256,0,0,1,1.143,1.956,2.46,2.46,0,0,1-.921,2.064,3.868,3.868,0,0,1-2.445.717,5.778,5.778,0,0,1-1.594-.209,2.379,2.379,0,0,1-1.073-.565,1.692,1.692,0,0,1-.089-.584" transform="translate(-30.285 -455.129)" fill="#85909d"/>
    <path id="Path_53" data-name="Path 53" d="M641.97,499.747l-.089-.089a9.079,9.079,0,0,1,1.829-2.083,1.734,1.734,0,0,1,.851,1.028,8.659,8.659,0,0,1-2.591,1.143m-3.276,9.55a.771.771,0,0,0,.565-.235.818.818,0,0,0,.248-.565v-7.074a.706.706,0,0,0-.191-.483.922.922,0,0,0-.622-.279h-.165v-.127h4.864a5.462,5.462,0,0,0,.864-.076,3.511,3.511,0,0,0,.66-.153v2.222l-.127-.013v-.14a1.178,1.178,0,0,0-.584-1.117,1.373,1.373,0,0,0-.661-.178h-2.133v3.7h1.676a1.081,1.081,0,0,0,.775-.324,1.054,1.054,0,0,0,.3-.768v-.114h.127V506.5h-.127v-.1a1.053,1.053,0,0,0-1.054-1.092h-1.7v3.568h1.663a2.322,2.322,0,0,0,1.556-.533,3.154,3.154,0,0,0,.934-1.511h.127l-.584,2.591h-6.579V509.3Z" transform="translate(-61.514 -443.517)" fill="#85909d"/>
    <path id="Path_54" data-name="Path 54" d="M686.113,521.213a4.847,4.847,0,0,1-3.486-1.251,4.636,4.636,0,0,1,3.562-7.995,9.718,9.718,0,0,1,1.969.2,6.4,6.4,0,0,1,1.537.489l.026,2.185h-.115a3.014,3.014,0,0,0-1.13-1.784,3.269,3.269,0,0,0-1.905-.552,2.777,2.777,0,0,0-2.362,1.1,4.906,4.906,0,0,0-.826,3.01,5.149,5.149,0,0,0,.756,2.991,2.458,2.458,0,0,0,2.14,1.08,2.5,2.5,0,0,0,1.677-.572,1.752,1.752,0,0,0,.483-.686v-1.943a.53.53,0,0,0-.172-.426.736.736,0,0,0-.489-.146h-.2v-.127h3.569v.127h-.191a.688.688,0,0,0-.47.146.538.538,0,0,0-.165.426v2.1a4.037,4.037,0,0,1-1.638,1.143,6.385,6.385,0,0,1-2.565.5" transform="translate(-96.03 -455.128)" fill="#85909d"/>
    <path id="Path_55" data-name="Path 55" d="M736.224,520.7a.772.772,0,0,0,.565-.235.818.818,0,0,0,.247-.565v-7.073a.705.705,0,0,0-.191-.483.921.921,0,0,0-.622-.279h-.165v-.127h4.864a4.614,4.614,0,0,0,1.029-.1,4.265,4.265,0,0,0,.5-.134v2.222l-.127-.013v-.14a1.178,1.178,0,0,0-.584-1.117,1.37,1.37,0,0,0-.66-.178h-2.133v3.7h1.676a1.081,1.081,0,0,0,.775-.324,1.054,1.054,0,0,0,.3-.768v-.114h.127V517.9H741.7v-.1a1.052,1.052,0,0,0-1.054-1.092h-1.7v3.568h1.664a2.322,2.322,0,0,0,1.556-.533,3.153,3.153,0,0,0,.934-1.511h.127l-.584,2.591h-6.579V520.7Z" transform="translate(-140.197 -454.915)" fill="#85909d"/>
    <path id="Path_56" data-name="Path 56" d="M181.484,400.775l13.193,2.669v9.162h1.644V401.951l-14.837-3Z" transform="translate(307.213 -363.95)" fill="#df0923"/>
    <path id="Path_57" data-name="Path 57" d="M194.676,488.467c0,4.539-3.941,8.653-7.248,11.3a46.333,46.333,0,0,1-5.945,4.006v2.263a51.7,51.7,0,0,0,6.765-4.544c3.683-2.953,8.072-7.536,8.072-12.59V483.28h-1.644Z" transform="translate(307.214 -431.984)" fill="#33822b"/>
    <path id="Path_58" data-name="Path 58" d="M106.592,398.95l-14.837,3V412.6H93.4v-9.161l13.193-2.669Z" transform="translate(379.603 -363.95)" fill="#df0923"/>
    <path id="Path_59" data-name="Path 59" d="M93.4,488.469v-5.187H91.755v5.627c0,5.055,4.39,9.637,8.072,12.59a51.7,51.7,0,0,0,6.765,4.544V503.78a46.315,46.315,0,0,1-5.945-4.006c-3.306-2.652-7.248-6.766-7.248-11.3" transform="translate(379.603 -431.986)" fill="#33822b"/>
    <path id="Path_60" data-name="Path 60" d="M130.082,508.326h.733l1.022-3.076,1.022,3.076h.733l-1.755-5.283Z" transform="translate(348.682 -447.929)" fill="#85909d"/>
    <path id="Path_61" data-name="Path 61" d="M128.061,533.112a2.431,2.431,0,0,1-3.651.727Zm-5.164-.265a3.165,3.165,0,0,0,6.059,0l.141-.467h-6.341Z" transform="translate(354.593 -471.596)" fill="#85909d"/>
    <path id="Path_62" data-name="Path 62" d="M201.773,508.326h.733l1.022-3.076,1.022,3.076h.733l-1.754-5.283Z" transform="translate(290.845 -447.929)" fill="#85909d"/>
    <path id="Path_63" data-name="Path 63" d="M199.751,533.112a2.431,2.431,0,0,1-3.651.727Zm-5.164-.265a3.165,3.165,0,0,0,6.059,0l.141-.467h-6.341Z" transform="translate(296.756 -471.596)" fill="#85909d"/>
    <path id="Path_64" data-name="Path 64" d="M149.309,433.717v-4.041l-.417-.6-.414.6v4.047l-.9.9v-4.781h0v-.393a3.928,3.928,0,0,0-1.466-2.638h.7l1.174,1.3.736-1.3h.345l.736,1.3,1.175-1.3h.7a3.929,3.929,0,0,0-1.466,2.638v.393h0v4.778Zm-.415,3.028-1.233-1.233,1.233-1.233,1.233,1.233Zm-3.961-10.709a.879.879,0,0,1,.8-.51h6.325a.879.879,0,0,1,.8.51Zm4.443-3.359c-.108-.058-.217-.121-.329-.188l-.264-.157q-.326-.2-.482-.3a1.111,1.111,0,0,1-.247-.209.359.359,0,0,1-.092-.236q0-.245.363-.478c.033.017.085.045.156.085l.317.182q.261.149.427.25a2.828,2.828,0,0,1,.278.188.83.83,0,0,1,.177.181.357.357,0,0,1,.065.207q0,.208-.369.472m-3.238,8.879a3.1,3.1,0,0,0-2.074,1.377,4.136,4.136,0,0,1,.041-3.966,3.071,3.071,0,0,0,2.033,1.312Zm5.476-1.277a3.07,3.07,0,0,0,2.033-1.312,4.138,4.138,0,0,1,.041,3.966,3.1,3.1,0,0,0-2.074-1.377Zm-1.414,17.68.831-.707V435.927h3.839l.283-.831h-4.122v-2.942l.228.016a2.443,2.443,0,0,1,2.091,1.541l.218.559.351-.487a4.784,4.784,0,0,0-.039-5.648l-.338-.455-.225.52a2.423,2.423,0,0,1-2.059,1.462l-.229.016v-.194a3.351,3.351,0,0,1,2.384-2.683h.279v-.4a1.647,1.647,0,0,0-1.645-1.646H149.8a1.189,1.189,0,0,0,.15-.107,1.033,1.033,0,0,0,.278-.351.969.969,0,0,0,.1-.422,1.038,1.038,0,0,0-.42-.82,1.287,1.287,0,0,0,.46-.4.933.933,0,0,0,.158-.53.971.971,0,0,0-.1-.455,1.107,1.107,0,0,0-.278-.342,2.849,2.849,0,0,0-.393-.273l-.489-.287c-.062-.039-.189-.111-.38-.214a2.1,2.1,0,0,1-.409-.269.359.359,0,0,1-.12-.271.337.337,0,0,1,.141-.267.585.585,0,0,1,.38-.115.627.627,0,0,1,.337.081,1.08,1.08,0,0,1,.255.235,1.939,1.939,0,0,0,.2.217.3.3,0,0,0,.2.064.361.361,0,0,0,.245-.1.288.288,0,0,0,.109-.221.616.616,0,0,0-.1-.318,1.049,1.049,0,0,0-.278-.3,1.462,1.462,0,0,0-.441-.215,1.88,1.88,0,0,0-.564-.081,1.653,1.653,0,0,0-.71.141,1.07,1.07,0,0,0-.453.376.907.907,0,0,0-.154.508.953.953,0,0,0,.37.742,1.028,1.028,0,0,0-.655.91.962.962,0,0,0,.06.355.87.87,0,0,0,.167.266,1.478,1.478,0,0,0,.245.213c.093.065.183.127.27.185q.345.22.68.427t.5.319a1.155,1.155,0,0,1,.249.219.36.36,0,0,1,.087.231.408.408,0,0,1-.154.315.591.591,0,0,1-.4.135.64.64,0,0,1-.636-.413,1.818,1.818,0,0,0-.224-.341.239.239,0,0,0-.1-.064.362.362,0,0,0-.132-.026.367.367,0,0,0-.28.12.391.391,0,0,0-.111.275.79.79,0,0,0,.095.355,1.163,1.163,0,0,0,.294.359,1.4,1.4,0,0,0,.22.153H145.73a1.647,1.647,0,0,0-1.646,1.646v.4h.282a3.35,3.35,0,0,1,2.384,2.683v.2l-.265-.019a2.425,2.425,0,0,1-2.059-1.462l-.225-.52-.338.455a4.783,4.783,0,0,0-.039,5.648l.351.487.218-.559a2.443,2.443,0,0,1,2.091-1.541l.262-.019V435.1h-4.113l.283.831h3.83V447.25l.831.707v-11.51l.9.9v11.376l.417.354.414-.352V437.342l.9-.9Z" transform="translate(338.555 -380.125)" fill="#85909d"/>
  </g>
</svg>
