<svg xmlns="http://www.w3.org/2000/svg" width="146.66" height="38.656" viewBox="0 0 146.66 38.656">
  <g id="Сгруппировать_2" data-name="Сгруппировать 2" transform="translate(-1551.341 -35)">
    <path id="Path_2" data-name="Path 2" d="M1234.08,0a26,26,0,0,1,26,26h-4.3a21.7,21.7,0,0,0-21.7-21.7Z" transform="translate(437.921 35)" fill="#9a0e0b" fill-rule="evenodd"/>
    <path id="Path_3" data-name="Path 3" d="M386.363,305.529c.029-.394.04-.777.04-1.171V298.3h.495v3.382h.021a2.153,2.153,0,0,1,2.018-1.121,2.33,2.33,0,0,1,2.332,2.474,2.433,2.433,0,0,1-2.413,2.615,2.136,2.136,0,0,1-1.989-1.06h-.02l-.03.939Zm.535-1.928a1.642,1.642,0,0,0,.05.374,1.881,1.881,0,0,0,1.828,1.272,1.965,1.965,0,0,0,2-2.192,1.945,1.945,0,0,0-1.939-2.09,1.9,1.9,0,0,0-1.858,1.353,1.357,1.357,0,0,0-.081.444Z" transform="translate(1202.758 -234.136)" fill="#4d4c4d" fill-rule="evenodd"/>
    <path id="Path_4" data-name="Path 4" d="M453.735,326.346c0,.394.009.778.04,1.172h-.464l-.03-.979h-.02a2.1,2.1,0,0,1-1.889,1.1c-.555,0-1.827-.192-1.827-2.251v-2.716h.494v2.615c0,1.13.394,1.919,1.464,1.919a1.808,1.808,0,0,0,1.616-1.031,1.57,1.57,0,0,0,.121-.565v-2.938h.495Z" transform="translate(1145.753 -256.124)" fill="#4d4c4d" fill-rule="evenodd"/>
    <path id="Path_5" data-name="Path 5" d="M506.828,325.739a2.355,2.355,0,0,0,1.212.364c.848,0,1.222-.444,1.222-.939,0-.565-.384-.838-1.141-1.08-.878-.282-1.313-.737-1.313-1.312a1.419,1.419,0,0,1,1.6-1.344,2.112,2.112,0,0,1,1.171.323l-.192.4a1.854,1.854,0,0,0-1.071-.312.9.9,0,0,0-1.019.868c0,.545.414.758,1.131,1,.889.3,1.323.686,1.323,1.414,0,.787-.646,1.393-1.748,1.393a2.713,2.713,0,0,1-1.352-.353Z" transform="translate(1094.234 -255.002)" fill="#4d4c4d" fill-rule="evenodd"/>
    <path id="Path_6" data-name="Path 6" d="M551.857,304a.422.422,0,0,1-.424.434.416.416,0,0,1-.394-.434.434.434,0,0,1,.414-.434.419.419,0,0,1,.4.434Zm-.656,6.28v-4.846h.495v4.846Z" transform="translate(1054.182 -238.885)" fill="#4d4c4d" fill-rule="evenodd"/>
    <path id="Path_7" data-name="Path 7" d="M575.549,322.72c0-.393-.011-.776-.041-1.17h.464l.041.969h.02a2.058,2.058,0,0,1,1.868-1.09c.444,0,1.887.2,1.887,2.212V326.4h-.494v-2.76c0-.95-.414-1.787-1.524-1.787A1.785,1.785,0,0,0,576.124,323a1.369,1.369,0,0,0-.081.433V326.4h-.494Z" transform="translate(1032.105 -255.002)" fill="#4d4c4d" fill-rule="evenodd"/>
    <path id="Path_8" data-name="Path 8" d="M632.775,323.972a1.938,1.938,0,0,0,2.05,2.12,3.373,3.373,0,0,0,1.556-.3l.131.393a3.9,3.9,0,0,1-1.737.333,2.337,2.337,0,0,1-2.483-2.423,2.43,2.43,0,0,1,2.423-2.666,2.089,2.089,0,0,1,2.11,2.242,1.169,1.169,0,0,1-.021.3Zm3.534-.393a1.6,1.6,0,0,0-1.655-1.747,1.877,1.877,0,0,0-1.847,1.747Z" transform="translate(980.874 -255.002)" fill="#4d4c4d" fill-rule="evenodd"/>
    <path id="Path_9" data-name="Path 9" d="M688.641,325.739a2.348,2.348,0,0,0,1.211.364c.849,0,1.222-.444,1.222-.939,0-.565-.383-.838-1.141-1.08-.878-.282-1.312-.737-1.312-1.312a1.418,1.418,0,0,1,1.6-1.344,2.117,2.117,0,0,1,1.171.323l-.192.4a1.851,1.851,0,0,0-1.07-.312.9.9,0,0,0-1.019.868c0,.545.414.758,1.13,1,.888.3,1.323.686,1.323,1.414,0,.787-.647,1.393-1.747,1.393a2.714,2.714,0,0,1-1.353-.353Z" transform="translate(930.198 -255.002)" fill="#4d4c4d" fill-rule="evenodd"/>
    <path id="Path_10" data-name="Path 10" d="M730.77,325.739a2.348,2.348,0,0,0,1.211.364c.848,0,1.222-.444,1.222-.939,0-.565-.384-.838-1.141-1.08-.879-.282-1.313-.737-1.313-1.312a1.418,1.418,0,0,1,1.6-1.344,2.113,2.113,0,0,1,1.172.323l-.191.4a1.857,1.857,0,0,0-1.071-.312.9.9,0,0,0-1.02.868c0,.545.414.758,1.13,1,.889.3,1.324.686,1.324,1.414,0,.787-.647,1.393-1.747,1.393a2.714,2.714,0,0,1-1.353-.353Z" transform="translate(892.188 -255.002)" fill="#4d4c4d" fill-rule="evenodd"/>
    <path id="Path_11" data-name="Path 11" d="M800.954,326.164a3.8,3.8,0,0,1-1.626.353,2.421,2.421,0,0,1-2.564-2.473,2.567,2.567,0,0,1,2.756-2.616,2.886,2.886,0,0,1,1.474.343l-.181.4a2.613,2.613,0,0,0-1.333-.322,2.121,2.121,0,1,0-.08,4.239,3.256,3.256,0,0,0,1.413-.322Z" transform="translate(832.482 -255.002)" fill="#4d4c4d" fill-rule="evenodd"/>
    <path id="Path_12" data-name="Path 12" d="M853.275,323.912a2.513,2.513,0,0,1-2.6,2.6,2.419,2.419,0,0,1-2.494-2.494,2.506,2.506,0,0,1,2.564-2.6,2.41,2.41,0,0,1,2.534,2.484Zm-4.6.08a2.009,2.009,0,0,0,2.03,2.122,2.165,2.165,0,1,0-2.03-2.122Z" transform="translate(786.095 -255.002)" fill="#4d4c4d" fill-rule="evenodd"/>
    <path id="Path_13" data-name="Path 13" d="M913.471,322.72c0-.393-.01-.776-.041-1.17h.464l.041.969h.02a2.059,2.059,0,0,1,1.868-1.09c.444,0,1.887.2,1.887,2.212V326.4h-.494v-2.76c0-.95-.414-1.787-1.524-1.787A1.784,1.784,0,0,0,914.046,323a1.367,1.367,0,0,0-.081.433V326.4h-.494Z" transform="translate(727.222 -255.002)" fill="#4d4c4d" fill-rule="evenodd"/>
    <path id="Path_14" data-name="Path 14" d="M971.124,325.739a2.349,2.349,0,0,0,1.211.364c.848,0,1.222-.444,1.222-.939,0-.565-.384-.838-1.141-1.08-.879-.282-1.312-.737-1.312-1.312a1.418,1.418,0,0,1,1.595-1.344,2.112,2.112,0,0,1,1.171.323l-.191.4a1.854,1.854,0,0,0-1.07-.312.9.9,0,0,0-1.02.868c0,.545.414.758,1.132,1,.888.3,1.323.686,1.323,1.414,0,.787-.646,1.393-1.747,1.393a2.715,2.715,0,0,1-1.353-.353Z" transform="translate(675.333 -255.002)" fill="#4d4c4d" fill-rule="evenodd"/>
    <path id="Path_15" data-name="Path 15" d="M1020.66,326.346c0,.394.009.778.04,1.172h-.465l-.029-.979h-.02a2.1,2.1,0,0,1-1.888,1.1c-.555,0-1.828-.192-1.828-2.251v-2.716h.495v2.615c0,1.13.393,1.919,1.464,1.919a1.808,1.808,0,0,0,1.615-1.031,1.561,1.561,0,0,0,.121-.565v-2.938h.5Z" transform="translate(634.254 -256.124)" fill="#4d4c4d" fill-rule="evenodd"/>
    <rect id="Rectangle_13" data-name="Rectangle 13" width="0.495" height="7.229" transform="translate(1656.692 64.165)" fill="#4d4c4d"/>
    <path id="Path_16" data-name="Path 16" d="M1095.08,307.9v1.444h1.535v.393h-1.535v3.1c0,.6.182,1.049.777,1.049a1.9,1.9,0,0,0,.637-.09l.06.383a1.977,1.977,0,0,1-.746.131,1.122,1.122,0,0,1-.9-.363,1.8,1.8,0,0,1-.323-1.171v-3.039h-.888v-.393h.888v-1.292Z" transform="translate(564.58 -242.798)" fill="#4d4c4d" fill-rule="evenodd"/>
    <path id="Path_17" data-name="Path 17" d="M1134.37,326.4l-.08-.747h-.021a2.145,2.145,0,0,1-1.756.868,1.389,1.389,0,0,1-1.545-1.332c0-1.1,1.02-1.818,3.281-1.787v-.112a1.292,1.292,0,0,0-1.373-1.443,2.446,2.446,0,0,0-1.394.4l-.161-.353a2.916,2.916,0,0,1,1.6-.465c1.645,0,1.827,1.272,1.827,2.041v1.756a7.716,7.716,0,0,0,.081,1.172Zm-.121-2.584c-1.282-.041-2.756.161-2.756,1.282a.98.98,0,0,0,1.06,1.02,1.714,1.714,0,0,0,1.636-.99.814.814,0,0,0,.06-.282Z" transform="translate(530.95 -255.002)" fill="#4d4c4d" fill-rule="evenodd"/>
    <path id="Path_18" data-name="Path 18" d="M1186.56,322.72c0-.393-.009-.776-.04-1.17h.464l.041.969h.02a2.059,2.059,0,0,1,1.868-1.09c.444,0,1.887.2,1.887,2.212V326.4h-.495v-2.76c0-.95-.415-1.787-1.524-1.787a1.784,1.784,0,0,0-1.646,1.151,1.362,1.362,0,0,0-.081.433V326.4h-.5Z" transform="translate(480.832 -255.002)" fill="#4d4c4d" fill-rule="evenodd"/>
    <path id="Path_19" data-name="Path 19" d="M1247.49,326.164a3.8,3.8,0,0,1-1.626.353,2.421,2.421,0,0,1-2.564-2.473,2.567,2.567,0,0,1,2.756-2.616,2.887,2.887,0,0,1,1.474.343l-.182.4a2.61,2.61,0,0,0-1.332-.322,2.121,2.121,0,1,0-.082,4.239,3.259,3.259,0,0,0,1.414-.322Z" transform="translate(429.6 -255.002)" fill="#4d4c4d" fill-rule="evenodd"/>
    <path id="Path_20" data-name="Path 20" d="M1293.81,322.672l1.444,3.24a9.324,9.324,0,0,1,.394,1.02h.02c.111-.3.242-.666.4-1.06l1.353-3.2h.535l-1.716,3.917a6.217,6.217,0,0,1-1.748,2.757,2.578,2.578,0,0,1-.888.434l-.131-.414a2.4,2.4,0,0,0,.888-.474,3.543,3.543,0,0,0,.929-1.3.538.538,0,0,0,.061-.192.623.623,0,0,0-.071-.222l-2.008-4.5Z" transform="translate(384.512 -256.124)" fill="#4d4c4d" fill-rule="evenodd"/>
    <path id="Path_21" data-name="Path 21" d="M3.777,157.28c.127.86,1.377,1.339,2.775,1.339a9.753,9.753,0,0,0,2.974-.418l.5,2.654a11.025,11.025,0,0,1-4.059.683C2.153,161.537,0,159.434,0,156a5.52,5.52,0,0,1,5.616-5.777c3.5,0,5,2.572,5,5.545a7.192,7.192,0,0,1-.143,1.509Zm3.183-2.687a1.6,1.6,0,0,0-1.537-1.773,1.8,1.8,0,0,0-1.7,1.773Z" transform="translate(1551.347 -100.539)" fill="#4d4c4d" fill-rule="evenodd"/>
    <path id="Path_22" data-name="Path 22" d="M154.437,159.85c0,1.525.044,2.77.088,3.69H151.1l-.176-1.426h-.078a3.761,3.761,0,0,1-3.287,1.669c-2.418,0-3.838-1.558-3.838-4.692V152.7H147.7v5.754c0,1.383.451,2.138,1.387,2.138a1.337,1.337,0,0,0,1.278-.92,1.379,1.379,0,0,0,.1-.589V152.7h3.976Z" transform="translate(1421.677 -102.772)" fill="#4d4c4d" fill-rule="evenodd"/>
    <path id="Path_23" data-name="Path 23" d="M294.628,154.125c0-1.723-.027-2.753-.088-3.656h3.392l.143,1.955h.088a3.114,3.114,0,0,1,2.886-2.2,3.163,3.163,0,0,1,.793.066v3.728a4.547,4.547,0,0,0-1.014-.11c-1.173,0-1.961.489-2.17,1.365a3.556,3.556,0,0,0-.055.678V161.3h-3.975Z" transform="translate(1285.604 -100.539)" fill="#4d4c4d" fill-rule="evenodd"/>
    <path id="Path_24" data-name="Path 24" d="M401.83,155.777c0,3.937-2.815,5.772-5.848,5.772-3.243,0-5.76-2.059-5.76-5.584,0-3.442,2.274-5.738,5.964-5.738a5.32,5.32,0,0,1,5.644,5.55Zm-7.511.1c0,1.625.534,2.864,1.762,2.864,1.069,0,1.652-1.124,1.652-2.864,0-1.5-.485-2.852-1.663-2.852-1.3.005-1.751,1.442-1.751,2.857Z" transform="translate(1199.277 -100.539)" fill="#9a0e0b" fill-rule="evenodd"/>
    <path id="Path_25" data-name="Path 25" d="M547.443,163.014l-.17-1.345h-.058a3.962,3.962,0,0,1-3.259,1.588A3.039,3.039,0,0,1,540.7,160.2c0-2.581,2.286-4,6.4-3.968V156a2.194,2.194,0,0,0-2.425-2.456,5.185,5.185,0,0,0-2.776.794l-.439-1.288a6.691,6.691,0,0,1,3.516-.934c3.257,0,4.05,2.226,4.05,4.359v3.985a16.577,16.577,0,0,0,.161,2.549Zm-.3-5.439c-2.1-.044-4.5.332-4.5,2.392a1.706,1.706,0,0,0,1.808,1.855,2.666,2.666,0,0,0,2.6-1.785,2,2,0,0,0,.092-.609Z" transform="translate(1063.509 -102.247)" fill="#4d4c4d" fill-rule="evenodd"/>
    <path id="Path_26" data-name="Path 26" d="M664.941,123.228v3.066h2.784v1.468h-2.784V133.5c0,1.328.381,2.077,1.465,2.077a3.889,3.889,0,0,0,1.123-.14l.087,1.472a4.929,4.929,0,0,1-1.73.267,2.711,2.711,0,0,1-2.091-.82,4.076,4.076,0,0,1-.752-2.779V127.76h-1.65v-1.468h1.65v-2.566Z" transform="translate(954.617 -76.18)" fill="#4d4c4d" fill-rule="evenodd"/>
    <rect id="Rectangle_14" data-name="Rectangle 14" width="1.927" height="15.638" transform="translate(1626.181 45.128)" fill="#4d4c4d"/>
    <path id="Path_27" data-name="Path 27" d="M833.571,163.014l-.171-1.345h-.058a3.961,3.961,0,0,1-3.259,1.588,3.039,3.039,0,0,1-3.254-3.057c0-2.581,2.288-4,6.4-3.968V156a2.194,2.194,0,0,0-2.426-2.456,5.185,5.185,0,0,0-2.776.794l-.44-1.288a6.694,6.694,0,0,1,3.516-.934c3.256,0,4.05,2.226,4.05,4.359v3.985a16.748,16.748,0,0,0,.161,2.549Zm-.3-5.439c-2.1-.044-4.5.332-4.5,2.392a1.706,1.706,0,0,0,1.81,1.855,2.666,2.666,0,0,0,2.6-1.785,2,2,0,0,0,.092-.609Z" transform="translate(805.356 -102.247)" fill="#4d4c4d" fill-rule="evenodd"/>
    <path id="Path_28" data-name="Path 28" d="M960.107,155.238c0-1.111-.036-1.993-.089-2.877h1.712l.107,1.752h.054a3.93,3.93,0,0,1,3.523-1.994c1.463,0,3.754.88,3.754,4.539v6.355h-1.927v-6.142c0-1.722-.65-3.164-2.463-3.164a2.788,2.788,0,0,0-2.61,1.988,3,3,0,0,0-.133.9v6.419h-1.928Z" transform="translate(685.188 -102.247)" fill="#4d4c4d" fill-rule="evenodd"/>
    <path id="Path_29" data-name="Path 29" d="M1093,123.228v3.066h2.784v1.468H1093V133.5c0,1.328.382,2.077,1.465,2.077a3.884,3.884,0,0,0,1.123-.14l.089,1.472a4.936,4.936,0,0,1-1.732.267,2.711,2.711,0,0,1-2.091-.82,4.081,4.081,0,0,1-.752-2.779V127.76h-1.65v-1.468h1.65v-2.566Z" transform="translate(568.406 -76.18)" fill="#4d4c4d" fill-rule="evenodd"/>
    <path id="Path_30" data-name="Path 30" d="M1193.46,112.669a1.168,1.168,0,0,1-1.232,1.2,1.155,1.155,0,0,1-1.169-1.2,1.176,1.176,0,0,1,1.2-1.206,1.16,1.16,0,0,1,1.2,1.206Zm-2.165,13.663V115.679h1.927v10.652Z" transform="translate(476.737 -65.565)" fill="#4d4c4d" fill-rule="evenodd"/>
    <path id="Path_31" data-name="Path 31" d="M1263.48,162.657a7.356,7.356,0,0,1-3.057.616,5.075,5.075,0,0,1-5.316-5.442,5.426,5.426,0,0,1,5.724-5.68,6.243,6.243,0,0,1,2.693.568l-.431,1.488a4.709,4.709,0,0,0-2.266-.512c-2.43,0-3.762,1.822-3.757,4.034a3.656,3.656,0,0,0,3.71,3.987,5.64,5.64,0,0,0,2.372-.513Z" transform="translate(418.951 -102.275)" fill="#4d4c4d" fill-rule="evenodd"/>
  </g>
</svg>
